<?xml version="1.0" encoding="UTF-8"?>
<svg id="Layer_1" data-name="Layer 1" xmlns="http://www.w3.org/2000/svg" viewBox="0 0 1080 1080">
  <defs>
    <style>
      .cls-1 {
        fill: #7a6cf0;
      }

      .cls-2 {
        fill: #f2f3f7;
      }
    </style>
  </defs>
  <rect class="cls-1" x="0" y="0" width="1080" height="1080" rx="540" ry="540"/>
  <g>
    <path class="cls-2" d="M469.38,352.87c-.34,6.43-3.17,12.33-7.98,16.61-36.7,32.7-59.5,78.72-62.58,126.3-.4,6.38-3.27,12.22-8.09,16.44-4.48,3.94-10.23,6.08-16.18,6-.46,0-.9-.02-1.35-.06-1.01-.07-1.98-.19-2.9-.36l-.8-.17c-11.47-2.55-19.56-13.33-18.78-25.06,3.88-60.03,32.49-117.98,78.5-158.98,4.47-3.99,10.26-6.14,16.32-6.07,6.74.08,13.17,2.97,17.65,7.91,4.34,4.79,6.55,10.98,6.21,17.43Z"/>
    <path class="cls-2" d="M559.39,385.47c-.34,6.35-3.14,12.17-7.86,16.37-33.63,29.97-54.54,72.15-57.34,115.73-.4,6.3-3.25,12.05-8,16.22-4.41,3.88-10.08,5.97-15.95,5.9-.45,0-.91-.02-1.35-.05-.95-.07-1.92-.18-2.84-.37-11.79-2.23-20.1-12.92-19.33-24.88,3.62-55.88,30.25-109.8,73.06-147.93,4.42-3.96,10.13-6.09,16.04-6.02h.06c.36,0,.71,0,1.07.04,6.31.35,12.1,3.12,16.34,7.79l.32.35c4.06,4.65,6.12,10.64,5.79,16.84Z"/>
    <path class="cls-2" d="M844.07,460.1c-3,8.84-11.37,14.7-20.82,14.59-2.21-.03-4.36-.39-6.45-1.06-5.57-1.82-10.05-5.68-12.65-10.88-2.57-5.11-2.96-10.91-1.12-16.34,21.61-63.53-1.26-132.64-56.89-171.98-26.52-18.78-57.74-28.91-90.26-29.31-34.07-.42-66.69,9.78-94.34,29.49-3.79,2.7-8.25,4.1-12.91,4.04-4.45-.05-8.71-1.44-12.32-4-26.48-18.75-57.64-28.85-90.16-29.25-34.1-.42-66.77,9.79-94.5,29.53-54.97,39.17-77.72,107.87-56.58,170.93,2.99,8.95-.19,18.66-7.92,24.16-54.93,39.11-77.64,107.79-56.5,170.93,20.88,62.35,79.97,104.78,147.05,105.6l2.33.02c.15-.01.25,0,.35,0h.08c9.16.11,17.27,6.02,20.17,14.7,20.85,62.29,80.06,104.7,147.33,105.53.74,0,1.44.02,2.18.02,57.97-.07,110.96-31.16,138.24-81.13,3.83-7.03,11.25-11.32,19.39-11.22,3.42.04,6.7.86,9.75,2.44,5.18,2.72,8.96,7.27,10.65,12.81,1.67,5.52,1.06,11.32-1.69,16.36-34.85,63.81-102.39,103.51-176.27,103.61-.94.01-1.9,0-2.82-.01h-.02c-40.72-.5-79.74-12.81-112.84-35.63-30.42-20.94-54.21-49.71-68.8-83.22l-.82-1.9-2.05-.19c-37.58-3.07-73.34-16.42-103.45-38.61-32.81-24.19-56.96-57.27-69.84-95.69-12.87-38.47-13.38-79.16-1.51-117.67,10.88-35.23,31.62-66.61,60.01-90.77l1.61-1.38-.49-2.07c-8.54-35.88-6.57-73.22,5.7-107.98,13.38-37.99,38.11-70.64,71.52-94.42,33.35-23.75,72.66-36.76,113.66-37.59,2.23-.04,4.47-.05,6.66-.02,35.35.43,70.08,10.1,100.4,27.94l1.76,1.04,1.77-1.03c31.92-18.92,68.42-28.68,105.57-28.23l1.36.02c40.99.73,80.33,13.62,113.76,37.27,71.27,50.4,100.51,139.04,72.76,220.57Z"/>
  </g>
</svg>