<?xml version="1.0" encoding="UTF-8"?>
<svg id="Layer_1" xmlns="http://www.w3.org/2000/svg" version="1.1" viewBox="0 0 359.4 140.5">
  <!-- Generator: Adobe Illustrator 30.3.0, SVG Export Plug-In . SVG Version: 2.1.3 Build 182)  -->
  <defs>
    <style>
      .st0 {
        fill: #f2f3f7;
      }
    </style>
  </defs>
  <path class="st0" d="M100.4,39.1c-14.6,0-17.7,12.8-17.7,12.8V12.6c0-6.2-3.5-8.8-7.9-8.8s-8,1.6-8,9.1v119.7c0,4.9,3,7.8,8,7.8s7.9-2.9,7.9-7.8v-62.3c0-6.6,1-14.2,8.8-14.2s7.9,3.3,7.9,8.4v67.9c0,7.2,5.5,8,7.9,8,3.9,0,8-2.3,8-8.8V53.9c0-8.9-6-14.8-14.8-14.8Z"/>
  <path class="st0" d="M159.4,110.1c.7,2.4,0,4.8-2.1,6.3-1,.7-2.2,1.1-3.3,1.1s-2.3-.4-3.3-1.1c-2,1.4-4.6,1.4-6.7,0-2-1.5-2.8-3.9-2.1-6.3-2-1.5-2.8-4-2-6.3.8-2.4,2.9-3.9,5.4-3.9.8-2.4,2.9-3.9,5.4-3.9s4.6,1.5,5.4,3.9c2.5,0,4.6,1.6,5.4,3.9.8,2.4,0,4.9-2,6.3ZM168.6,46c-4.3-4.6-10.2-7.1-16.5-7.1h-3.1c-7.1,0-13,2.5-17.2,7.1-3.7,4.2-5.7,9.9-5.7,16.2v8.6c0,8,5.2,8.8,7.5,8.8s8.6-.2,9.4-5.5c-.2,0-.2,0-.1-.1-1.4-.6-2.5-1.8-3-3.4-.8-2.4,0-4.9,2-6.3-.7-2.4,0-4.8,2.1-6.3,2-1.5,4.6-1.5,6.7,0,1-.7,2.2-1.1,3.3-1.1s2.3.4,3.3,1.1c2,1.5,2.8,3.9,2.1,6.3,2,1.5,2.8,4,2,6.3-.8,2.3-2.8,3.8-5.2,3.9-2.1,5.1-6.9,7.7-12.4,11.5-8.7,6.1-17.7,12.4-17.7,26.3v13.4c0,8.9,6,14.8,14.8,14.8s.4,0,.6,0c2.7-.1,5.1-1.3,7-3.1,6.1-4.8,10.5-11.5,10.5-11.5v5.6c0,7.5,4.9,9.1,9,9.1s7-2.2,7-5.8V62.1c0-5.9-2.3-11.8-6.4-16.1Z"/>
  <path class="st0" d="M219.6,39.1c-.3,0-.5,0-.8,0-11.2.6-17,14.4-17,14.4v-6.6c0-5.5-3.6-7.8-8-7.8s-8,2.3-8,7.8v85.8c0,4.9,3,7.8,8,7.8s7.9-2.9,7.9-7.8v-62.3c0-6.6,1-14.2,8.8-14.2s7.9,3.3,7.9,8.4v8.6c0,7.2,5.5,8,7.9,8,3.9,0,8-2.3,8-8.8v-14.4c0-12.2-5.3-18.9-14.8-18.9Z"/>
  <path class="st0" d="M311.8,39.1c-10.3,0-17.9,15.2-17.9,15.2,0,0-.8-15.2-14.8-15.2s-17.7,11.7-17.7,11.7v-3.9c0-5.2-3.2-7.8-8-7.8s-8,2.2-8,7.8v85.8c0,4.9,3,7.8,8,7.8s7.9-2.9,7.9-7.8v-62.3c0-6.6,1-14.2,8.8-14.2s7.9,3.3,7.9,8.4v67.9c0,7.2,5.5,8,7.9,8,3.9,0,8-2.3,8-8.8v-61.3c0-6.1.9-14.2,9-14.2s7.9,3.3,7.9,8.4v67.9c0,7.2,5.5,8,7.9,8,3.9,0,8-2.3,8-8.8V58c0-12.2-5.3-18.9-14.8-18.9Z"/>
  <path class="st0" d="M344.8,38.9c-5,0-8,2.9-8,7.8v86c0,4.9,3,7.8,8,7.8s7.9-2.9,7.9-7.8V46.7c0-4.9-2.9-7.8-7.9-7.8Z"/>
  <path class="st0" d="M359,10.2c-1-3.1-3.8-5.1-7-5.2-1-3.1-3.8-5.1-7.1-5.1s-6,2-7.1,5.1c-3.3,0-6,2-7,5.2-1,3.1,0,6.4,2.7,8.3-1,3.1,0,6.4,2.7,8.3,2.6,1.9,6.1,1.9,8.7,0,1.3.9,2.8,1.4,4.3,1.4s3.1-.5,4.4-1.5c2.6-1.9,3.7-5.2,2.7-8.3,2.6-1.9,3.7-5.2,2.7-8.3Z"/>
  <path class="st0" d="M24.9,140.5C8.4,140.5,0,131.5,0,113.7v-43.8C0,51,9.8,38.9,24.9,38.9h6c15.1,0,24.9,12.3,24.9,31.3v4.5c0,6.1-5.1,7-8.1,7s-8.3-.7-8.3-7v-9.8c0-6.5-4.8-11.2-11.5-11.2s-11.5,4.7-11.5,11.2v50c0,6.8,4.5,11.2,11.5,11.2s11.5-4.4,11.5-11.2v-8.1c0-6.3,5.8-7,8.3-7s8.1.9,8.1,7v7c0,17.8-8.4,26.8-24.9,26.8h-6Z"/>
</svg>