<?xml version="1.0" encoding="UTF-8"?>
<svg id="Layer_1" xmlns="http://www.w3.org/2000/svg" version="1.1" viewBox="0 0 380.6 414.1">
  <!-- Generator: Adobe Illustrator 30.3.0, SVG Export Plug-In . SVG Version: 2.1.3 Build 182)  -->
  <defs>
    <style>
      .st0 {
        fill: #6a5ae0;
      }
    </style>
  </defs>
  <g>
    <path class="st0" d="M172.5,56.7c-.1,2.4-1.2,4.6-3,6.3-13.8,12.3-22.4,29.6-23.6,47.6-.2,2.4-1.2,4.6-3,6.2-1.7,1.5-3.9,2.3-6.1,2.3s-.3,0-.5,0c-.4,0-.7,0-1.1-.1h-.3c-4.3-1-7.4-5.1-7.1-9.5,1.5-22.6,12.2-44.4,29.6-59.9,1.7-1.5,3.9-2.3,6.1-2.3,2.5,0,5,1.1,6.6,3,1.6,1.8,2.5,4.1,2.3,6.6Z"/>
    <path class="st0" d="M206.4,69c-.1,2.4-1.2,4.6-3,6.2-12.7,11.3-20.5,27.2-21.6,43.6-.2,2.4-1.2,4.5-3,6.1-1.7,1.5-3.8,2.2-6,2.2s-.3,0-.5,0c-.4,0-.7,0-1.1-.1-4.4-.8-7.6-4.9-7.3-9.4,1.4-21,11.4-41.3,27.5-55.7,1.7-1.5,3.8-2.3,6-2.3h0c.1,0,.3,0,.4,0,2.4.1,4.6,1.2,6.2,2.9h.1c1.5,1.9,2.3,4.1,2.2,6.5Z"/>
    <path class="st0" d="M313.6,97.1c-1.1,3.3-4.3,5.5-7.8,5.5s-1.6-.1-2.4-.4c-2.1-.7-3.8-2.1-4.8-4.1-1-1.9-1.1-4.1-.4-6.2,8.1-23.9-.5-49.9-21.4-64.8-10-7.1-21.7-10.9-34-11-12.8-.2-25.1,3.7-35.5,11.1-1.4,1-3.1,1.5-4.9,1.5s-3.3-.5-4.6-1.5c-10-7.1-21.7-10.9-34-11s-25.1,3.7-35.6,11.1c-20.7,14.8-29.3,40.6-21.3,64.4,1.1,3.4,0,7-3,9.1-20.7,14.7-29.2,40.6-21.3,64.4,7.9,23.5,30.1,39.5,55.4,39.8h.9c0,0,0,0,.1,0h0c3.5,0,6.5,2.3,7.6,5.5,7.9,23.5,30.1,39.4,55.5,39.7.3,0,.5,0,.8,0,21.8,0,41.8-11.7,52.1-30.6,1.4-2.6,4.2-4.3,7.3-4.2s2.5.3,3.7.9c2,1,3.4,2.7,4,4.8.6,2.1.4,4.3-.6,6.2-13.1,24-38.6,39-66.4,39-.4,0-.7,0-1.1,0h0c-15.3-.2-30-4.8-42.5-13.4-11.5-7.9-20.4-18.7-25.9-31.3l-.3-.7h-.8c-14.1-1.2-27.6-6.3-39-14.6-12.4-9.1-21.5-21.6-26.3-36-4.8-14.5-5-29.8-.6-44.3,4.1-13.3,11.9-25.1,22.6-34.2l.6-.5-.2-.8c-3.2-13.5-2.5-27.6,2.1-40.7,5-14.3,14.3-26.6,26.9-35.6C131.2,5.3,146,.4,161.4.1c.8,0,1.7,0,2.5,0,13.3.2,26.4,3.8,37.8,10.5l.7.4.7-.4C215.1,3.5,228.8-.2,242.8,0h.5c15.4.3,30.2,5.1,42.8,14,26.8,19,37.8,52.4,27.4,83.1Z"/>
  </g>
  <g>
    <path class="st0" d="M106.3,306.7c-15.5,0-18.8,13.5-18.8,13.5v-41.5c0-6.5-3.7-9.3-8.3-9.3s-8.5,1.7-8.5,9.6v126.8c0,5.2,3.2,8.3,8.5,8.3s8.3-3.1,8.3-8.3v-66c0-7,1.1-15,9.3-15s8.3,3.5,8.3,8.9v71.9c0,7.7,5.8,8.5,8.3,8.5,4.1,0,8.5-2.5,8.5-9.4v-82.4c0-9.4-6.3-15.7-15.7-15.7Z"/>
    <path class="st0" d="M168.8,381.9c.8,2.5,0,5.1-2.2,6.7-1.1.8-2.3,1.2-3.5,1.2s-2.4-.4-3.5-1.1c-2.1,1.5-4.9,1.5-7,0-2.1-1.6-3-4.2-2.2-6.7-2.1-1.6-3-4.2-2.1-6.7.8-2.5,3-4.1,5.7-4.2.8-2.5,3.1-4.1,5.7-4.1s4.9,1.6,5.7,4.1c2.6,0,4.9,1.7,5.7,4.2.8,2.5,0,5.1-2.1,6.7ZM178.6,314c-4.6-4.9-10.8-7.6-17.5-7.6h-3.3c-7.5,0-13.8,2.6-18.2,7.5-3.9,4.4-6.1,10.5-6.1,17.1v9.1c0,8.5,5.6,9.4,7.9,9.4s9.1-.2,10-5.8c-.2,0-.2,0-.1-.1-1.5-.7-2.6-1.9-3.1-3.6-.8-2.5,0-5.1,2.1-6.7-.8-2.5,0-5.1,2.2-6.7,2.1-1.6,4.9-1.6,7,0,1.1-.8,2.3-1.1,3.5-1.1s2.5.4,3.5,1.2c2.1,1.6,3,4.2,2.2,6.7,2.1,1.6,3,4.2,2.1,6.7-.8,2.5-2.9,4.1-5.5,4.2-2.3,5.4-7.3,8.1-13.2,12.2-9.2,6.4-18.7,13.1-18.7,27.8v14.1c0,9.4,6.3,15.7,15.7,15.7s.4,0,.6,0c2.9-.1,5.3-1.4,7.4-3.3,6.4-5.1,11.2-12.2,11.2-12.2v6c0,7.9,5.2,9.6,9.5,9.6s7.4-2.3,7.4-6.1v-76.9c0-6.3-2.5-12.5-6.7-17.1Z"/>
    <path class="st0" d="M232.6,306.7c-.3,0-.5,0-.8,0-11.9.7-18,15.2-18,15.2v-7c0-5.8-3.8-8.3-8.4-8.3s-8.4,2.4-8.4,8.3v90.9c0,5.2,3.2,8.3,8.5,8.3s8.3-3.1,8.3-8.3v-66c0-7,1.1-15,9.3-15s8.3,3.5,8.3,8.9v9.2c0,7.7,5.8,8.5,8.3,8.5,4.1,0,8.5-2.5,8.5-9.4v-15.3c0-12.9-5.6-20-15.7-20Z"/>
    <path class="st0" d="M330.2,306.7c-10.9,0-19,16-19,16,0,0-.9-16-15.7-16s-18.8,12.4-18.8,12.4v-4.1c0-5.5-3.4-8.3-8.4-8.3s-8.4,2.3-8.4,8.3v90.9c0,5.2,3.2,8.3,8.5,8.3s8.3-3.1,8.3-8.3v-66c0-7,1.1-15,9.3-15s8.3,3.5,8.3,8.9v71.9c0,7.7,5.8,8.5,8.3,8.5,4.1,0,8.5-2.5,8.5-9.4v-64.9c0-6.5,1-15,9.5-15s8.3,3.5,8.3,8.9v71.9c0,7.7,5.8,8.5,8.3,8.5,4.1,0,8.5-2.5,8.5-9.4v-78c0-12.9-5.6-20-15.7-20Z"/>
    <path class="st0" d="M365.2,306.4c-5.3,0-8.5,3.1-8.5,8.3v91.1c0,5.2,3.2,8.3,8.5,8.3s8.3-3.1,8.3-8.3v-91.1c0-5.2-3.1-8.3-8.3-8.3Z"/>
    <path class="st0" d="M380.1,276.2c-1.1-3.3-4-5.4-7.4-5.5-1.1-3.3-4-5.4-7.5-5.4s-6.4,2.1-7.5,5.4c-3.5,0-6.4,2.2-7.4,5.5-1.1,3.3,0,6.7,2.8,8.8-1,3.3,0,6.7,2.9,8.8,2.8,2,6.4,2.1,9.2,0,1.4,1,3,1.5,4.6,1.5s3.2-.5,4.6-1.5c2.8-2,3.9-5.5,2.9-8.8,2.8-2.1,3.9-5.5,2.8-8.8Z"/>
    <path class="st0" d="M26.4,414.1C8.9,414.1,0,404.5,0,385.7v-46.4C0,319.4,10.3,306.4,26.4,306.4h6.3c16,0,26.4,13,26.4,33.1v4.7c0,6.5-5.4,7.4-8.6,7.4s-8.8-.7-8.8-7.4v-10.4c0-6.9-5.1-11.9-12.1-11.9s-12.1,5-12.1,11.9v52.9c0,7.2,4.8,11.9,12.1,11.9s12.1-4.7,12.1-11.9v-8.6c0-6.7,6.2-7.4,8.8-7.4s8.6,1,8.6,7.4v7.4c0,18.8-8.9,28.4-26.4,28.4h-6.3Z"/>
  </g>
</svg>