<?xml version="1.0" encoding="UTF-8"?>
<svg id="Layer_1" data-name="Layer 1" xmlns="http://www.w3.org/2000/svg" viewBox="0 0 509.4 210.85">
  <defs>
    <style>
      .cls-1 {
        fill: #f2f3f7;
      }
    </style>
  </defs>
  <g>
    <path class="cls-1" d="M85.99,45.69c-.1,1.91-.94,3.66-2.37,4.93-10.89,9.7-17.65,23.35-18.56,37.47-.12,1.89-.97,3.63-2.4,4.88-1.33,1.17-3.03,1.8-4.8,1.78-.14,0-.27,0-.4-.02-.3-.02-.59-.06-.86-.11l-.24-.05c-3.4-.76-5.8-3.95-5.57-7.43,1.15-17.81,9.64-35,23.29-47.16,1.33-1.18,3.04-1.82,4.84-1.8,2,.02,3.91.88,5.24,2.35,1.29,1.42,1.94,3.26,1.84,5.17Z"/>
    <path class="cls-1" d="M112.69,55.36c-.1,1.88-.93,3.61-2.33,4.86-9.98,8.89-16.18,21.4-17.01,34.33-.12,1.87-.96,3.57-2.37,4.81-1.31,1.15-2.99,1.77-4.73,1.75-.13,0-.27,0-.4-.02-.28-.02-.57-.05-.84-.11-3.5-.66-5.96-3.83-5.73-7.38,1.07-16.58,8.97-32.57,21.67-43.88,1.31-1.17,3-1.81,4.76-1.78h.02c.11,0,.21,0,.32.01,1.87.1,3.59.93,4.85,2.31l.09.1c1.2,1.38,1.82,3.16,1.72,5Z"/>
    <path class="cls-1" d="M197.59,75.22c-.89,2.62-3.37,4.36-6.17,4.33-.65,0-1.29-.12-1.91-.32-1.65-.54-2.98-1.68-3.75-3.23-.76-1.52-.88-3.24-.33-4.85,6.41-18.85-.83-37.07-17.34-48.74-7.87-5.57-17.13-8.58-26.77-8.69-10.11-.12-19.78,2.9-27.98,8.75-1.12.8-2.45,1.21-3.83,1.2s-2.58-.43-3.65-1.19c-7.85-5.56-17.1-8.56-26.74-8.68s-19.81,2.9-28.03,8.76c-16.31,11.62-23.06,32-16.78,50.7.89,2.66-.06,5.54-2.35,7.17-16.29,11.6-23.03,31.97-16.76,50.7,6.19,18.49,23.72,31.08,43.62,31.33h.69s.08,0,.1,0h.02c2.72.03,5.12,1.79,5.98,4.36,6.18,18.48,23.75,31.06,43.7,31.3.22,0,.43,0,.65,0,17.2-.02,31.66-8.03,39.75-22.85,1.14-2.08,3.34-3.36,5.75-3.33,1.01.01,1.99.25,2.89.72,1.54.81,2.66,2.16,3.16,3.8.49,1.64.32,3.36-.5,4.85-10.34,18.93-29.12,29.49-51.04,29.52-.28,0-.56,0-.84,0h0c-12.08-.15-23.65-3.8-33.47-10.57-9.02-6.21-16.08-14.75-20.41-24.69l-.24-.56-.61-.06c-11.15-.91-21.75-4.87-30.69-11.45-9.73-7.18-16.9-16.99-20.72-28.38-3.82-11.41-3.97-23.48-.45-34.9,3.23-10.45,9.38-19.76,17.8-26.93l.48-.41-.15-.61c-2.53-10.64-1.95-21.72,1.69-32.03,3.97-11.27,11.3-20.95,21.21-28.01C53.46,5.2,65.12,1.34,77.28,1.09c.66-.01,1.33-.01,1.97,0,10.49.13,20.79,2.99,29.78,8.29l.52.31.52-.31c9.47-5.61,20.3-8.51,31.32-8.37h.4c12.16.22,23.83,4.04,33.74,11.06,21.14,14.95,30.28,38.97,22.05,63.16Z"/>
  </g>
  <g>
    <path class="cls-1" d="M263.96,89.74c-13.87,0-16.81,12.09-16.81,12.09v-37.12c0-5.85-3.33-8.31-7.45-8.31-3.88,0-7.63,1.49-7.63,8.58v113.47c0,4.64,2.85,7.41,7.63,7.41s7.45-2.77,7.45-7.41v-59.07c0-6.27.95-13.45,8.32-13.45,4.53,0,7.45,3.14,7.45,7.99v64.33c0,6.86,5.21,7.6,7.45,7.6,3.69,0,7.63-2.2,7.63-8.38v-73.69c0-8.4-5.64-14.04-14.04-14.04Z"/>
    <path class="cls-1" d="M319.94,157.04c.71,2.25-.06,4.59-1.97,5.99-.96.7-2.07,1.05-3.17,1.05s-2.17-.34-3.13-1.02c-1.92,1.37-4.39,1.36-6.3-.03-1.91-1.39-2.69-3.73-1.98-5.99-1.89-1.4-2.65-3.75-1.92-6,.73-2.25,2.72-3.71,5.08-3.73.75-2.24,2.75-3.68,5.12-3.68s4.37,1.44,5.12,3.68c2.36.02,4.35,1.48,5.08,3.73.73,2.25-.02,4.6-1.92,6ZM328.65,96.32c-4.07-4.37-9.63-6.77-15.64-6.77h-2.95c-6.74,0-12.36,2.33-16.26,6.73-3.49,3.95-5.41,9.38-5.41,15.3v8.19c0,7.56,4.97,8.38,7.11,8.38,2.99,0,8.14-.2,8.91-5.18-.17-.03-.2-.08-.13-.13-1.31-.61-2.34-1.74-2.82-3.22-.73-2.25.02-4.6,1.92-6-.71-2.25.07-4.59,1.98-5.99,1.91-1.39,4.38-1.4,6.3-.03.95-.68,2.04-1.02,3.13-1.02s2.21.35,3.17,1.05c1.91,1.39,2.68,3.73,1.97,5.99,1.9,1.4,2.65,3.75,1.92,6-.71,2.2-2.63,3.64-4.92,3.72-2.02,4.85-6.55,7.26-11.77,10.9-8.24,5.76-16.77,11.72-16.77,24.92v12.66c0,8.4,5.64,14.04,14.05,14.04.17,0,.34,0,.52-.02,2.55-.13,4.79-1.27,6.65-2.98,5.74-4.58,9.98-10.91,9.98-10.91v5.33c0,7.09,4.62,8.58,8.49,8.58,4.13,0,6.59-2.05,6.59-5.46v-68.82c0-5.6-2.2-11.16-6.03-15.26Z"/>
    <path class="cls-1" d="M376.98,89.74c-.25,0-.49.01-.73.03-10.61.58-16.08,13.62-16.08,13.62v-6.24c0-5.21-3.42-7.41-7.54-7.41-3.88,0-7.54,2.13-7.54,7.41v81.3c0,4.64,2.85,7.41,7.63,7.41s7.45-2.77,7.45-7.41v-59.07c0-6.27.94-13.45,8.32-13.45,4.53,0,7.45,3.14,7.45,7.99v8.19c0,6.86,5.21,7.6,7.45,7.6,3.69,0,7.63-2.2,7.63-8.38v-13.65c0-11.57-4.99-17.94-14.04-17.94Z"/>
    <path class="cls-1" d="M464.34,89.74c-9.72,0-16.99,14.36-16.99,14.36,0,0-.78-14.36-14.04-14.36-10.92,0-16.81,11.11-16.81,11.11v-3.7c0-4.93-3.07-7.41-7.54-7.41-3.88,0-7.54,2.05-7.54,7.41v81.3c0,4.64,2.85,7.41,7.63,7.41s7.45-2.77,7.45-7.41v-59.07c0-6.27.94-13.45,8.32-13.45,4.53,0,7.45,3.14,7.45,7.99v64.33c0,6.86,5.21,7.6,7.45,7.6,3.69,0,7.63-2.2,7.63-8.38v-58.1c0-5.78.88-13.45,8.49-13.45,4.53,0,7.45,3.14,7.45,7.99v64.33c0,6.86,5.21,7.6,7.45,7.6,3.69,0,7.63-2.2,7.63-8.38v-69.79c0-11.57-4.99-17.94-14.04-17.94Z"/>
    <path class="cls-1" d="M495.62,89.55c-4.77,0-7.63,2.77-7.63,7.41v81.49c0,4.64,2.85,7.41,7.63,7.41s7.45-2.77,7.45-7.41v-81.49c0-4.64-2.78-7.41-7.45-7.41Z"/>
    <path class="cls-1" d="M509.03,62.45c-.96-2.95-3.57-4.86-6.66-4.89-.98-2.93-3.61-4.82-6.71-4.82s-5.72,1.89-6.71,4.82c-3.09.03-5.7,1.94-6.66,4.89-.96,2.95.03,6.03,2.51,7.87-.93,2.95.08,6.02,2.59,7.84,2.51,1.82,5.74,1.84,8.26.04,1.25.89,2.68,1.34,4.1,1.34s2.9-.46,4.16-1.38c2.51-1.82,3.52-4.89,2.59-7.84,2.48-1.84,3.47-4.92,2.51-7.87Z"/>
    <path class="cls-1" d="M192.44,185.86c-15.65,0-23.58-8.54-23.58-25.4v-41.49c0-17.87,9.26-29.42,23.58-29.42h5.64c14.33,0,23.58,11.63,23.58,29.63v4.23c0,5.8-4.81,6.66-7.67,6.66-2.37,0-7.87-.65-7.87-6.66v-9.27c0-6.18-4.57-10.66-10.86-10.66s-10.86,4.48-10.86,10.66v47.33c0,6.47,4.26,10.66,10.86,10.66s10.86-4.18,10.86-10.66v-7.65c0-6.01,5.51-6.66,7.87-6.66,2.86,0,7.67.87,7.67,6.66v6.65c0,16.85-7.93,25.4-23.58,25.4h-5.64Z"/>
  </g>
</svg>