<?xml version="1.0" encoding="UTF-8"?>
<svg id="Layer_1" xmlns="http://www.w3.org/2000/svg" version="1.1" viewBox="0 0 240.9 252.5">
  <!-- Generator: Adobe Illustrator 30.3.0, SVG Export Plug-In . SVG Version: 2.1.3 Build 182)  -->
  <defs>
    <style>
      .st0 {
        fill: #6a5ae0;
      }
    </style>
  </defs>
  <path class="st0" d="M103.4,53.8c-.1,2.3-1.1,4.4-2.8,5.9-13.1,11.7-21.2,28.1-22.3,45.1-.1,2.3-1.2,4.4-2.9,5.9-1.6,1.4-3.7,2.2-5.8,2.1s-.3,0-.5,0c-.4,0-.7,0-1-.1h-.3c-4.1-1-7-4.8-6.7-9,1.4-21.4,11.6-42.1,28-56.7,1.6-1.4,3.7-2.2,5.8-2.2s4.7,1.1,6.3,2.8c1.5,1.7,2.3,3.9,2.2,6.2Z"/>
  <path class="st0" d="M135.6,65.4c-.1,2.3-1.1,4.3-2.8,5.8-12,10.7-19.5,25.7-20.5,41.3-.1,2.2-1.2,4.3-2.9,5.8-1.6,1.4-3.6,2.1-5.7,2.1s-.3,0-.5,0c-.3,0-.7,0-1-.1-4.2-.8-7.2-4.6-6.9-8.9,1.3-19.9,10.8-39.2,26.1-52.8,1.6-1.4,3.6-2.2,5.7-2.1h0c.1,0,.3,0,.4,0,2.3.1,4.3,1.1,5.8,2.8h.1c1.4,1.8,2.2,3.9,2.1,6.1Z"/>
  <path class="st0" d="M237.2,92c-1.1,3.2-4.1,5.2-7.4,5.2s-1.6-.1-2.3-.4c-2-.6-3.6-2-4.5-3.9-.9-1.8-1.1-3.9-.4-5.8,7.7-22.7-.4-47.3-20.3-61.4-9.5-6.7-20.6-10.3-32.2-10.5-12.2-.1-23.8,3.5-33.7,10.5-1.4,1-2.9,1.5-4.6,1.4s-3.1-.5-4.4-1.4c-9.4-6.7-20.6-10.3-32.2-10.4-12.2-.1-23.8,3.5-33.7,10.5-19.6,14-27.7,38.5-20.2,61,1.1,3.2,0,6.7-2.8,8.6-19.6,14-27.7,38.5-20.2,61,7.5,22.3,28.5,37.4,52.5,37.7h.8c0,0,0,0,.1,0h0c3.3,0,6.2,2.1,7.2,5.2,7.4,22.2,28.6,37.4,52.6,37.7.3,0,.5,0,.8,0,20.7,0,39.6-11.1,49.3-29,1.4-2.5,4-4,6.9-4s2.4.3,3.5.9c1.8,1,3.2,2.6,3.8,4.6.6,2,.4,4-.6,5.8-12.4,22.8-36.5,36.9-62.9,37-.3,0-.7,0-1,0h0c-14.5-.2-28.5-4.6-40.3-12.7-10.9-7.5-19.3-17.7-24.6-29.7l-.3-.7h-.7c-13.4-1.2-26.2-5.9-36.9-13.8-11.7-8.6-20.3-20.4-24.9-34.1-4.6-13.7-4.8-28.3-.5-42,3.9-12.6,11.3-23.8,21.4-32.4l.6-.5-.2-.7c-3-12.8-2.3-26.1,2-38.5,4.8-13.6,13.6-25.2,25.5-33.7C64.3,5.1,78.3.4,93,.1c.8,0,1.6,0,2.4,0,12.6.2,25,3.6,35.8,10l.6.4.6-.4C143.8,3.3,156.9-.2,170.1,0h.5c14.6.3,28.7,4.9,40.6,13.3,25.4,18,35.9,49.6,26,78.7Z"/>
</svg>