<?xml version="1.0" encoding="UTF-8"?>
<svg id="Layer_1" data-name="Layer 1" xmlns="http://www.w3.org/2000/svg" viewBox="0 0 193.74 203.08">
  <defs>
    <style>
      .cls-1 {
        fill: #f2f3f7;
      }
    </style>
  </defs>
  <path class="cls-1" d="M190.77,74.03c-.86,2.54-3.26,4.22-5.98,4.19-.63,0-1.25-.11-1.85-.31-1.6-.52-2.89-1.63-3.63-3.12-.74-1.47-.85-3.13-.32-4.69,6.2-18.24-.36-38.08-16.33-49.37-7.61-5.39-16.57-8.3-25.91-8.41-9.78-.12-19.14,2.81-27.08,8.47-1.09.78-2.37,1.18-3.71,1.16-1.28-.02-2.5-.41-3.54-1.15-7.6-5.38-16.55-8.28-25.88-8.4-9.79-.12-19.17,2.81-27.13,8.48-15.78,11.25-22.31,30.96-16.24,49.07.86,2.57-.06,5.36-2.27,6.93-15.77,11.23-22.29,30.94-16.22,49.07,5.99,17.9,22.96,30.08,42.21,30.31h.67s.07,0,.1,0h.02c2.63.03,4.96,1.73,5.79,4.22,5.98,17.88,22.98,30.06,42.29,30.29.21,0,.41,0,.63,0,16.64-.02,31.85-8.95,39.68-23.29,1.1-2.02,3.23-3.25,5.57-3.22.98.01,1.92.25,2.8.7,1.49.78,2.57,2.09,3.06,3.68.48,1.58.31,3.25-.49,4.7-10,18.32-29.39,29.71-50.6,29.74-.27,0-.54,0-.81,0h0c-11.69-.14-22.89-3.68-32.39-10.23-8.73-6.01-15.56-14.27-19.75-23.89l-.24-.55-.59-.05c-10.79-.88-21.05-4.71-29.7-11.08-9.42-6.94-16.35-16.44-20.05-27.47-3.69-11.04-3.84-22.72-.43-33.78,3.12-10.11,9.08-19.12,17.23-26.06l.46-.4-.14-.59c-2.45-10.3-1.89-21.02,1.64-31,3.84-10.91,10.94-20.28,20.53-27.11C51.74,4.06,63.02.33,74.79.09c.64-.01,1.28-.01,1.91,0,10.15.12,20.12,2.9,28.82,8.02l.5.3.51-.3C115.69,2.67,126.17-.13,136.84,0h.39c11.77.22,23.06,3.91,32.66,10.7,20.46,14.47,28.85,39.91,20.89,63.32Z"/>
  <path class="cls-1" d="M79.55,78.83c-.54,0-1.09-.07-1.64-.22-3.38-.9-5.39-4.38-4.48-7.76.41-1.52.2-3.11-.59-4.47-.79-1.36-2.06-2.34-3.58-2.74-1.52-.41-3.11-.2-4.47.59-1.36.79-2.34,2.06-2.74,3.58-.9,3.38-4.38,5.38-7.76,4.48-3.38-.9-5.39-4.38-4.48-7.76,1.28-4.79,4.35-8.79,8.64-11.27,4.29-2.48,9.29-3.14,14.08-1.86,4.79,1.28,8.79,4.35,11.27,8.64s3.14,9.29,1.86,14.08c-.76,2.83-3.32,4.7-6.12,4.7Z"/>
  <path class="cls-1" d="M124.54,89.69c-.54,0-1.09-.07-1.64-.22-3.38-.9-5.39-4.38-4.48-7.76.84-3.14-1.03-6.38-4.17-7.22-3.14-.84-6.38,1.03-7.22,4.17-.9,3.38-4.38,5.38-7.76,4.48-3.38-.9-5.39-4.38-4.48-7.76,2.65-9.89,12.84-15.78,22.73-13.13,9.89,2.65,15.78,12.84,13.13,22.73-.76,2.83-3.32,4.7-6.12,4.7Z"/>
</svg>