<?xml version="1.0" encoding="UTF-8"?>
<svg id="Layer_1" data-name="Layer 1" xmlns="http://www.w3.org/2000/svg" viewBox="0 0 2654.64 357.23">
  <defs>
    <style>
      .cls-1 {
        fill: #7a6cf0;
      }
    </style>
  </defs>
  <path class="cls-1" d="M243.89,87.42c-8.62-26.53-32.11-43.75-59.94-44.01C175.1,17.02,151.47,0,123.57,0s-51.53,17.02-60.38,43.41c-27.83.26-51.32,17.47-59.94,44.01-8.62,26.53.26,54.27,22.63,70.84-8.36,26.55.76,54.21,23.33,70.61,22.57,16.4,51.69,16.52,74.36.37,11.25,8.01,24.09,12.02,36.92,12.02s26.07-4.13,37.44-12.39c22.57-16.4,31.69-44.06,23.33-70.61,22.37-16.57,31.25-44.3,22.63-70.84Z"/>
  <path class="cls-1" d="M778.89,87.42c-8.62-26.53-32.11-43.75-59.94-44.01-8.85-26.39-32.48-43.41-60.38-43.41s-51.53,17.02-60.38,43.41c-27.83.26-51.32,17.47-59.94,44.01-8.62,26.53.26,54.27,22.63,70.84-8.36,26.55.76,54.21,23.33,70.61,22.57,16.4,51.69,16.52,74.36.37,11.25,8.01,24.09,12.02,36.92,12.02s26.07-4.13,37.44-12.39c22.57-16.4,31.69-44.06,23.33-70.61,22.37-16.57,31.25-44.3,22.63-70.84Z"/>
  <path class="cls-1" d="M511.39,271.1c-8.62,26.53-32.11,43.75-59.94,44.01-8.85,26.39-32.48,43.41-60.38,43.41s-51.53-17.02-60.38-43.41c-27.83-.26-51.32-17.47-59.94-44.01-8.62-26.53.26-54.27,22.63-70.84-8.36-26.55.76-54.21,23.33-70.61,22.57-16.4,51.69-16.52,74.36-.37,11.25-8.01,24.09-12.02,36.92-12.02s26.07,4.13,37.44,12.39c22.57,16.4,31.69,44.06,23.33,70.61,22.37,16.57,31.25,44.3,22.63,70.84Z"/>
  <path class="cls-1" d="M1313.89,87.42c-8.62-26.53-32.11-43.75-59.94-44.01-8.85-26.39-32.48-43.41-60.38-43.41s-51.53,17.02-60.38,43.41c-27.83.26-51.32,17.47-59.94,44.01-8.62,26.53.26,54.27,22.63,70.84-8.36,26.55.76,54.21,23.33,70.61,22.57,16.4,51.69,16.52,74.36.37,11.25,8.01,24.09,12.02,36.92,12.02s26.07-4.13,37.44-12.39c22.57-16.4,31.69-44.06,23.33-70.61,22.37-16.57,31.25-44.3,22.63-70.84Z"/>
  <path class="cls-1" d="M1046.39,271.1c-8.62,26.53-32.11,43.75-59.94,44.01-8.85,26.39-32.48,43.41-60.38,43.41s-51.53-17.02-60.38-43.41c-27.83-.26-51.32-17.47-59.94-44.01-8.62-26.53.26-54.27,22.63-70.84-8.36-26.55.76-54.21,23.33-70.61,22.57-16.4,51.69-16.52,74.36-.37,11.25-8.01,24.09-12.02,36.92-12.02s26.07,4.13,37.44,12.39c22.57,16.4,31.69,44.06,23.33,70.61,22.37,16.57,31.25,44.3,22.63,70.84Z"/>
  <path class="cls-1" d="M1848.89,87.42c-8.62-26.53-32.11-43.75-59.94-44.01-8.85-26.39-32.48-43.41-60.38-43.41s-51.53,17.02-60.38,43.41c-27.83.26-51.32,17.47-59.94,44.01-8.62,26.53.26,54.27,22.63,70.84-8.36,26.55.76,54.21,23.33,70.61,22.57,16.4,51.69,16.52,74.36.37,11.25,8.01,24.09,12.02,36.92,12.02s26.07-4.13,37.44-12.39c22.57-16.4,31.69-44.06,23.33-70.61,22.37-16.57,31.25-44.3,22.63-70.84Z"/>
  <path class="cls-1" d="M1581.39,271.1c-8.62,26.53-32.11,43.75-59.94,44.01-8.85,26.39-32.48,43.41-60.38,43.41s-51.53-17.02-60.38-43.41c-27.83-.26-51.32-17.47-59.94-44.01-8.62-26.53.26-54.27,22.63-70.84-8.36-26.55.76-54.21,23.33-70.61,22.57-16.4,51.69-16.52,74.36-.37,11.25-8.01,24.09-12.02,36.92-12.02s26.07,4.13,37.44,12.39c22.57,16.4,31.69,44.06,23.33,70.61,22.37,16.57,31.25,44.3,22.63,70.84Z"/>
  <path class="cls-1" d="M2383.89,87.42c-8.62-26.53-32.11-43.75-59.94-44.01-8.85-26.39-32.48-43.41-60.38-43.41s-51.53,17.02-60.38,43.41c-27.83.26-51.32,17.47-59.94,44.01-8.62,26.53.26,54.27,22.63,70.84-8.36,26.55.76,54.21,23.33,70.61,22.57,16.4,51.69,16.52,74.36.37,11.25,8.01,24.09,12.02,36.92,12.02s26.07-4.13,37.44-12.39c22.57-16.4,31.69-44.06,23.33-70.61,22.37-16.57,31.25-44.3,22.63-70.84Z"/>
  <path class="cls-1" d="M2116.39,271.1c-8.62,26.53-32.11,43.75-59.94,44.01-8.85,26.39-32.48,43.41-60.38,43.41s-51.53-17.02-60.38-43.41c-27.83-.26-51.32-17.47-59.94-44.01-8.62-26.53.26-54.27,22.63-70.84-8.36-26.55.76-54.21,23.33-70.61,22.57-16.4,51.69-16.52,74.36-.37,11.25-8.01,24.09-12.02,36.92-12.02s26.07,4.13,37.44,12.39c22.57,16.4,31.69,44.06,23.33,70.61,22.37,16.57,31.25,44.3,22.63,70.84Z"/>
  <path class="cls-1" d="M2651.39,271.1c-8.62,26.53-32.11,43.75-59.94,44.01-8.85,26.39-32.48,43.41-60.38,43.41s-51.53-17.02-60.38-43.41c-27.83-.26-51.32-17.47-59.94-44.01-8.62-26.53.26-54.27,22.63-70.84-8.36-26.55.76-54.21,23.33-70.61,22.57-16.4,51.69-16.52,74.36-.37,11.25-8.01,24.09-12.02,36.92-12.02s26.07,4.13,37.44,12.39c22.57,16.4,31.69,44.06,23.33,70.61,22.37,16.57,31.25,44.3,22.63,70.84Z"/>
</svg>