<?xml version="1.0" encoding="UTF-8"?>
<svg id="Layer_1" data-name="Layer 1" xmlns="http://www.w3.org/2000/svg" viewBox="0 0 228.57 238.63">
  <defs>
    <style>
      .cls-1 {
        fill: #1e1f22;
      }
    </style>
  </defs>
  <path class="cls-1" d="M225.18,154.41c-1.02-2.98-3.84-4.95-7.03-4.91-.74.01-1.47.13-2.17.36-1.88.62-3.39,1.92-4.26,3.68-.86,1.73-.99,3.68-.37,5.51,7.33,21.42-1.25,41.84-19.99,55.14-8.94,6.35-19.46,9.79-30.43,9.94-11.49.16-22.5-3.26-31.84-9.89-1.28-.91-2.79-1.38-4.36-1.35-1.5.02-2.94.49-4.15,1.36-8.92,6.34-19.43,9.77-30.4,9.92-11.5.16-22.53-3.26-31.9-9.91-18.57-13.18-26.28-36.34-19.19-57.63,1-3.02-.08-6.3-2.69-8.14-18.55-13.16-26.26-36.32-19.16-57.63,7.01-21.05,26.92-35.4,49.55-35.71h.79c.05,0,.09,0,.12,0h.03c3.09-.04,5.82-2.04,6.8-4.97,7-21.03,26.95-35.37,49.64-35.69.25,0,.49,0,.74,0,19.56-.01,39.21,12.81,48.45,29.65,1.3,2.37,3.8,3.81,6.55,3.77,1.15-.02,2.26-.29,3.29-.83,1.75-.92,3.02-2.46,3.58-4.33.56-1.86.35-3.82-.58-5.52C174.37,15.7,149.8,0,124.87,0c-.32,0-.64,0-.95,0h0c-13.74.19-26.89,4.37-38.05,12.09-10.25,7.08-18.26,16.8-23.16,28.12l-.28.64-.69.06c-12.67,1.06-24.73,5.58-34.88,13.09-11.05,8.18-19.18,19.35-23.5,32.32-4.32,12.99-4.47,26.71-.44,39.7,3.69,11.88,10.71,22.45,20.3,30.59l.54.47-.17.7c-2.86,12.11-2.17,24.71,1.99,36.42,4.54,12.81,12.9,23.81,24.18,31.81,11.26,7.99,27.03,12.35,40.86,12.61.75.01,1.51.01,2.25,0,11.93-.17,21.14-3.44,31.36-9.48l.59-.35.6.35c10.78,6.37,25.6,9.63,38.13,9.46h.46c13.83-.28,24.59-4.64,35.86-12.64,24.01-17.04,34.73-44.05,25.32-71.54Z"/>
</svg>