<?xml version="1.0" encoding="UTF-8"?>
<svg id="Layer_1" data-name="Layer 1" xmlns="http://www.w3.org/2000/svg" viewBox="0 0 1317.14 1417.95">
  <defs>
    <style>
      .cls-1 {
        fill: #f2f3f7;
      }
    </style>
  </defs>
  <g>
    <path class="cls-1" d="M243.89,87.42c-8.62-26.53-32.11-43.75-59.94-44.01C175.1,17.02,151.47,0,123.57,0s-51.53,17.02-60.38,43.41c-27.83.26-51.32,17.47-59.94,44.01-8.62,26.53.26,54.27,22.63,70.84-8.36,26.55.76,54.21,23.33,70.61,22.57,16.4,51.69,16.52,74.36.37,11.25,8.01,24.09,12.02,36.92,12.02s26.07-4.13,37.44-12.39c22.57-16.4,31.69-44.06,23.33-70.61,22.37-16.57,31.25-44.3,22.63-70.84Z"/>
    <path class="cls-1" d="M778.89,87.42c-8.62-26.53-32.11-43.75-59.94-44.01C710.1,17.02,686.47,0,658.57,0s-51.53,17.02-60.38,43.41c-27.83.26-51.32,17.47-59.94,44.01-8.62,26.53.26,54.27,22.63,70.84-8.36,26.55.76,54.21,23.33,70.61,22.57,16.4,51.69,16.52,74.36.37,11.25,8.01,24.09,12.02,36.92,12.02s26.07-4.13,37.44-12.39c22.57-16.4,31.69-44.06,23.33-70.61,22.37-16.57,31.25-44.3,22.63-70.84Z"/>
    <path class="cls-1" d="M511.39,271.1c-8.62,26.53-32.11,43.75-59.94,44.01-8.85,26.39-32.48,43.41-60.38,43.41s-51.53-17.02-60.38-43.41c-27.83-.26-51.32-17.47-59.94-44.01-8.62-26.53.26-54.27,22.63-70.84-8.36-26.55.76-54.21,23.33-70.61,22.57-16.4,51.69-16.52,74.36-.37,11.25-8.01,24.09-12.02,36.92-12.02s26.07,4.13,37.44,12.39c22.57,16.4,31.69,44.06,23.33,70.61,22.37,16.57,31.25,44.3,22.63,70.84Z"/>
    <path class="cls-1" d="M1313.89,87.42c-8.62-26.53-32.11-43.75-59.94-44.01C1245.1,17.02,1221.47,0,1193.57,0s-51.53,17.02-60.38,43.41c-27.83.26-51.32,17.47-59.94,44.01-8.62,26.53.26,54.27,22.63,70.84-8.36,26.55.76,54.21,23.33,70.61,22.57,16.4,51.69,16.52,74.36.37,11.25,8.01,24.09,12.02,36.92,12.02s26.07-4.13,37.44-12.39c22.57-16.4,31.69-44.06,23.33-70.61,22.37-16.57,31.25-44.3,22.63-70.84Z"/>
    <path class="cls-1" d="M1046.39,271.1c-8.62,26.53-32.11,43.75-59.94,44.01-8.85,26.39-32.48,43.41-60.38,43.41s-51.53-17.02-60.38-43.41c-27.83-.26-51.32-17.47-59.94-44.01-8.62-26.53.26-54.27,22.63-70.84-8.36-26.55.76-54.21,23.33-70.61,22.57-16.4,51.69-16.52,74.36-.37,11.25-8.01,24.09-12.02,36.92-12.02s26.07,4.13,37.44,12.39c22.57,16.4,31.69,44.06,23.33,70.61,22.37,16.57,31.25,44.3,22.63,70.84Z"/>
  </g>
  <g>
    <path class="cls-1" d="M243.89,381.59c-8.62-26.53-32.11-43.75-59.94-44.01-8.85-26.39-32.48-43.41-60.38-43.41s-51.53,17.02-60.38,43.41c-27.83.26-51.32,17.47-59.94,44.01-8.62,26.53.26,54.27,22.63,70.84-8.36,26.55.76,54.21,23.33,70.61,22.57,16.4,51.69,16.52,74.36.37,11.25,8.01,24.09,12.02,36.92,12.02s26.07-4.13,37.44-12.39c22.57-16.4,31.69-44.06,23.33-70.61,22.37-16.57,31.25-44.3,22.63-70.84Z"/>
    <path class="cls-1" d="M778.89,381.59c-8.62-26.53-32.11-43.75-59.94-44.01-8.85-26.39-32.48-43.41-60.38-43.41s-51.53,17.02-60.38,43.41c-27.83.26-51.32,17.47-59.94,44.01-8.62,26.53.26,54.27,22.63,70.84-8.36,26.55.76,54.21,23.33,70.61,22.57,16.4,51.69,16.52,74.36.37,11.25,8.01,24.09,12.02,36.92,12.02s26.07-4.13,37.44-12.39c22.57-16.4,31.69-44.06,23.33-70.61,22.37-16.57,31.25-44.3,22.63-70.84Z"/>
    <path class="cls-1" d="M511.39,565.27c-8.62,26.53-32.11,43.75-59.94,44.01-8.85,26.39-32.48,43.41-60.38,43.41s-51.53-17.02-60.38-43.41c-27.83-.26-51.32-17.47-59.94-44.01-8.62-26.53.26-54.27,22.63-70.84-8.36-26.55.76-54.21,23.33-70.61,22.57-16.4,51.69-16.52,74.36-.37,11.25-8.01,24.09-12.02,36.92-12.02s26.07,4.13,37.44,12.39c22.57,16.4,31.69,44.06,23.33,70.61,22.37,16.57,31.25,44.3,22.63,70.84Z"/>
    <path class="cls-1" d="M1313.89,381.59c-8.62-26.53-32.11-43.75-59.94-44.01-8.85-26.39-32.48-43.41-60.38-43.41s-51.53,17.02-60.38,43.41c-27.83.26-51.32,17.47-59.94,44.01-8.62,26.53.26,54.27,22.63,70.84-8.36,26.55.76,54.21,23.33,70.61,22.57,16.4,51.69,16.52,74.36.37,11.25,8.01,24.09,12.02,36.92,12.02s26.07-4.13,37.44-12.39c22.57-16.4,31.69-44.06,23.33-70.61,22.37-16.57,31.25-44.3,22.63-70.84Z"/>
    <path class="cls-1" d="M1046.39,565.27c-8.62,26.53-32.11,43.75-59.94,44.01-8.85,26.39-32.48,43.41-60.38,43.41s-51.53-17.02-60.38-43.41c-27.83-.26-51.32-17.47-59.94-44.01-8.62-26.53.26-54.27,22.63-70.84-8.36-26.55.76-54.21,23.33-70.61,22.57-16.4,51.69-16.52,74.36-.37,11.25-8.01,24.09-12.02,36.92-12.02s26.07,4.13,37.44,12.39c22.57,16.4,31.69,44.06,23.33,70.61,22.37,16.57,31.25,44.3,22.63,70.84Z"/>
  </g>
  <g>
    <path class="cls-1" d="M243.89,675.77c-8.62-26.53-32.11-43.75-59.94-44.01-8.85-26.39-32.48-43.41-60.38-43.41s-51.53,17.02-60.38,43.41c-27.83.26-51.32,17.47-59.94,44.01-8.62,26.53.26,54.27,22.63,70.84-8.36,26.55.76,54.21,23.33,70.61,22.57,16.4,51.69,16.52,74.36.37,11.25,8.01,24.09,12.02,36.92,12.02s26.07-4.13,37.44-12.39c22.57-16.4,31.69-44.06,23.33-70.61,22.37-16.57,31.25-44.3,22.63-70.84Z"/>
    <path class="cls-1" d="M778.89,675.77c-8.62-26.53-32.11-43.75-59.94-44.01-8.85-26.39-32.48-43.41-60.38-43.41s-51.53,17.02-60.38,43.41c-27.83.26-51.32,17.47-59.94,44.01-8.62,26.53.26,54.27,22.63,70.84-8.36,26.55.76,54.21,23.33,70.61,22.57,16.4,51.69,16.52,74.36.37,11.25,8.01,24.09,12.02,36.92,12.02s26.07-4.13,37.44-12.39c22.57-16.4,31.69-44.06,23.33-70.61,22.37-16.57,31.25-44.3,22.63-70.84Z"/>
    <path class="cls-1" d="M511.39,859.45c-8.62,26.53-32.11,43.75-59.94,44.01-8.85,26.39-32.48,43.41-60.38,43.41s-51.53-17.02-60.38-43.41c-27.83-.26-51.32-17.47-59.94-44.01-8.62-26.53.26-54.27,22.63-70.84-8.36-26.55.76-54.21,23.33-70.61,22.57-16.4,51.69-16.52,74.36-.37,11.25-8.01,24.09-12.02,36.92-12.02s26.07,4.13,37.44,12.39c22.57,16.4,31.69,44.06,23.33,70.61,22.37,16.57,31.25,44.3,22.63,70.84Z"/>
    <path class="cls-1" d="M1313.89,675.77c-8.62-26.53-32.11-43.75-59.94-44.01-8.85-26.39-32.48-43.41-60.38-43.41s-51.53,17.02-60.38,43.41c-27.83.26-51.32,17.47-59.94,44.01-8.62,26.53.26,54.27,22.63,70.84-8.36,26.55.76,54.21,23.33,70.61,22.57,16.4,51.69,16.52,74.36.37,11.25,8.01,24.09,12.02,36.92,12.02s26.07-4.13,37.44-12.39c22.57-16.4,31.69-44.06,23.33-70.61,22.37-16.57,31.25-44.3,22.63-70.84Z"/>
    <path class="cls-1" d="M1046.39,859.45c-8.62,26.53-32.11,43.75-59.94,44.01-8.85,26.39-32.48,43.41-60.38,43.41s-51.53-17.02-60.38-43.41c-27.83-.26-51.32-17.47-59.94-44.01-8.62-26.53.26-54.27,22.63-70.84-8.36-26.55.76-54.21,23.33-70.61,22.57-16.4,51.69-16.52,74.36-.37,11.25-8.01,24.09-12.02,36.92-12.02s26.07,4.13,37.44,12.39c22.57,16.4,31.69,44.06,23.33,70.61,22.37,16.57,31.25,44.3,22.63,70.84Z"/>
  </g>
  <g>
    <path class="cls-1" d="M243.89,969.94c-8.62-26.53-32.11-43.75-59.94-44.01-8.85-26.39-32.48-43.41-60.38-43.41s-51.53,17.02-60.38,43.41c-27.83.26-51.32,17.47-59.94,44.01-8.62,26.53.26,54.27,22.63,70.84-8.36,26.55.76,54.21,23.33,70.61,22.57,16.4,51.69,16.52,74.36.37,11.25,8.01,24.09,12.02,36.92,12.02s26.07-4.13,37.44-12.39c22.57-16.4,31.69-44.06,23.33-70.61,22.37-16.57,31.25-44.3,22.63-70.84Z"/>
    <path class="cls-1" d="M778.89,969.94c-8.62-26.53-32.11-43.75-59.94-44.01-8.85-26.39-32.48-43.41-60.38-43.41s-51.53,17.02-60.38,43.41c-27.83.26-51.32,17.47-59.94,44.01-8.62,26.53.26,54.27,22.63,70.84-8.36,26.55.76,54.21,23.33,70.61,22.57,16.4,51.69,16.52,74.36.37,11.25,8.01,24.09,12.02,36.92,12.02s26.07-4.13,37.44-12.39c22.57-16.4,31.69-44.06,23.33-70.61,22.37-16.57,31.25-44.3,22.63-70.84Z"/>
    <path class="cls-1" d="M511.39,1153.62c-8.62,26.53-32.11,43.75-59.94,44.01-8.85,26.39-32.48,43.41-60.38,43.41s-51.53-17.02-60.38-43.41c-27.83-.26-51.32-17.47-59.94-44.01-8.62-26.53.26-54.27,22.63-70.84-8.36-26.55.76-54.21,23.33-70.61,22.57-16.4,51.69-16.52,74.36-.37,11.25-8.01,24.09-12.02,36.92-12.02s26.07,4.13,37.44,12.39c22.57,16.4,31.69,44.06,23.33,70.61,22.37,16.57,31.25,44.3,22.63,70.84Z"/>
    <path class="cls-1" d="M1313.89,969.94c-8.62-26.53-32.11-43.75-59.94-44.01-8.85-26.39-32.48-43.41-60.38-43.41s-51.53,17.02-60.38,43.41c-27.83.26-51.32,17.47-59.94,44.01-8.62,26.53.26,54.27,22.63,70.84-8.36,26.55.76,54.21,23.33,70.61,22.57,16.4,51.69,16.52,74.36.37,11.25,8.01,24.09,12.02,36.92,12.02s26.07-4.13,37.44-12.39c22.57-16.4,31.69-44.06,23.33-70.61,22.37-16.57,31.25-44.3,22.63-70.84Z"/>
    <path class="cls-1" d="M1046.39,1153.62c-8.62,26.53-32.11,43.75-59.94,44.01-8.85,26.39-32.48,43.41-60.38,43.41s-51.53-17.02-60.38-43.41c-27.83-.26-51.32-17.47-59.94-44.01-8.62-26.53.26-54.27,22.63-70.84-8.36-26.55.76-54.21,23.33-70.61,22.57-16.4,51.69-16.52,74.36-.37,11.25-8.01,24.09-12.02,36.92-12.02s26.07,4.13,37.44,12.39c22.57,16.4,31.69,44.06,23.33,70.61,22.37,16.57,31.25,44.3,22.63,70.84Z"/>
  </g>
  <g>
    <path class="cls-1" d="M243.89,1264.11c-8.62-26.53-32.11-43.75-59.94-44.01-8.85-26.39-32.48-43.41-60.38-43.41s-51.53,17.02-60.38,43.41c-27.83.26-51.32,17.47-59.94,44.01-8.62,26.53.26,54.27,22.63,70.84-8.36,26.55.76,54.21,23.33,70.61,22.57,16.4,51.69,16.52,74.36.37,11.25,8.01,24.09,12.02,36.92,12.02s26.07-4.13,37.44-12.39c22.57-16.4,31.69-44.06,23.33-70.61,22.37-16.57,31.25-44.3,22.63-70.84Z"/>
    <path class="cls-1" d="M778.89,1264.11c-8.62-26.53-32.11-43.75-59.94-44.01-8.85-26.39-32.48-43.41-60.38-43.41s-51.53,17.02-60.38,43.41c-27.83.26-51.32,17.47-59.94,44.01-8.62,26.53.26,54.27,22.63,70.84-8.36,26.55.76,54.21,23.33,70.61,22.57,16.4,51.69,16.52,74.36.37,11.25,8.01,24.09,12.02,36.92,12.02s26.07-4.13,37.44-12.39c22.57-16.4,31.69-44.06,23.33-70.61,22.37-16.57,31.25-44.3,22.63-70.84Z"/>
    <path class="cls-1" d="M513.89,1417.95h-245.64c2.49-16.01,11.19-30.66,25.13-40.99-8.36-26.55.76-54.21,23.33-70.61,22.57-16.4,51.69-16.52,74.36-.37,11.25-8.01,24.09-12.02,36.92-12.02s26.07,4.13,37.44,12.39c22.57,16.4,31.69,44.06,23.33,70.61,13.94,10.33,22.64,24.98,25.13,40.99Z"/>
    <path class="cls-1" d="M1313.89,1264.11c-8.62-26.53-32.11-43.75-59.94-44.01-8.85-26.39-32.48-43.41-60.38-43.41s-51.53,17.02-60.38,43.41c-27.83.26-51.32,17.47-59.94,44.01-8.62,26.53.26,54.27,22.63,70.84-8.36,26.55.76,54.21,23.33,70.61,22.57,16.4,51.69,16.52,74.36.37,11.25,8.01,24.09,12.02,36.92,12.02s26.07-4.13,37.44-12.39c22.57-16.4,31.69-44.06,23.33-70.61,22.37-16.57,31.25-44.3,22.63-70.84Z"/>
    <path class="cls-1" d="M1048.89,1417.95h-245.64c2.49-16.01,11.19-30.66,25.13-40.99-8.36-26.55.76-54.21,23.33-70.61,22.57-16.4,51.69-16.52,74.36-.37,11.25-8.01,24.09-12.02,36.93-12.02s26.06,4.13,37.44,12.39c22.57,16.4,31.68,44.06,23.33,70.61,13.94,10.33,22.64,24.99,25.12,40.99Z"/>
  </g>
  <g>
    <path class="cls-1" d="M498.26,0c-11.57,13.03-28.22,20.76-46.81,20.93-8.85,26.4-32.48,43.41-60.38,43.41s-51.53-17.01-60.38-43.41c-18.59-.17-35.24-7.9-46.81-20.93h214.38Z"/>
    <path class="cls-1" d="M1033.27,0c-11.57,13.03-28.22,20.76-46.82,20.93-8.85,26.4-32.48,43.41-60.38,43.41s-51.53-17.01-60.37-43.41c-18.6-.17-35.25-7.9-46.82-20.93h214.39Z"/>
  </g>
</svg>