<?xml version="1.0" encoding="UTF-8"?>
<svg id="Layer_1" data-name="Layer 1" xmlns="http://www.w3.org/2000/svg" viewBox="0 0 230.06 224.58">
  <defs>
    <style>
      .cls-1 {
        fill: #7a6cf0;
      }
    </style>
  </defs>
  <path class="cls-1" d="M227.03,81.38c-8.03-24.7-29.89-40.73-55.8-40.97C163,15.84,141,0,115.03,0s-47.97,15.84-56.21,40.41c-25.91.24-47.77,16.27-55.8,40.97-8.03,24.7.24,50.52,21.06,65.94-7.78,24.72.71,50.46,21.72,65.73,21.01,15.27,48.12,15.38,69.22.34,10.47,7.46,22.42,11.19,34.37,11.19s24.27-3.85,34.85-11.54c21.01-15.27,29.5-41.01,21.72-65.73,20.82-15.42,29.09-41.24,21.06-65.94Z"/>
</svg>