<?xml version="1.0" encoding="UTF-8"?>
<svg id="Layer_1" data-name="Layer 1" xmlns="http://www.w3.org/2000/svg" xmlns:xlink="http://www.w3.org/1999/xlink" viewBox="0 0 1235.51 411.83">
  <defs>
    <style>
      .cls-1 {
        fill: url(#linear-gradient-15);
      }

      .cls-2 {
        fill: url(#linear-gradient-13);
      }

      .cls-3 {
        fill: url(#linear-gradient-2);
      }

      .cls-4 {
        fill: url(#linear-gradient-10);
      }

      .cls-5 {
        fill: url(#linear-gradient-12);
      }

      .cls-6 {
        letter-spacing: 0em;
      }

      .cls-7 {
        font-family: PlusJakartaSans-SemiBold, 'Plus Jakarta Sans';
        font-size: 18px;
        font-variation-settings: 'wght' 600;
        font-weight: 600;
      }

      .cls-7, .cls-8 {
        fill: #f2f3f7;
      }

      .cls-9 {
        fill: url(#linear-gradient-4);
      }

      .cls-10 {
        fill: url(#linear-gradient-3);
      }

      .cls-11 {
        fill: url(#linear-gradient-5);
      }

      .cls-12 {
        fill: url(#linear-gradient-8);
      }

      .cls-13 {
        fill: #7a6cf0;
      }

      .cls-14 {
        fill: url(#linear-gradient-14);
      }

      .cls-15 {
        fill: url(#linear-gradient-17);
      }

      .cls-16 {
        fill: url(#linear-gradient-7);
      }

      .cls-17 {
        fill: url(#linear-gradient-9);
      }

      .cls-18 {
        fill: url(#linear-gradient-11);
      }

      .cls-19 {
        fill: url(#linear-gradient-6);
      }

      .cls-20 {
        fill: url(#linear-gradient-16);
      }

      .cls-21 {
        fill: url(#linear-gradient);
      }

      .cls-22 {
        letter-spacing: -.02em;
      }
    </style>
    <linearGradient id="linear-gradient" x1="-214.65" y1="40.46" x2="392.92" y2="40.46" gradientUnits="userSpaceOnUse">
      <stop offset="0" stop-color="#1e1f22" stop-opacity=".4"/>
      <stop offset="1" stop-color="#000" stop-opacity="0"/>
    </linearGradient>
    <linearGradient id="linear-gradient-2" x1="-104.65" y1="116.9" x2="323.61" y2="116.9" xlink:href="#linear-gradient"/>
    <linearGradient id="linear-gradient-3" x1="-200.4" y1="36.84" x2="407.14" y2="36.84" xlink:href="#linear-gradient"/>
    <linearGradient id="linear-gradient-4" x1="-34.1" y1="22.76" x2="105.45" y2="22.76" xlink:href="#linear-gradient"/>
    <linearGradient id="linear-gradient-5" x1="-11.3" y1="362.65" x2="254.87" y2="362.65" xlink:href="#linear-gradient"/>
    <linearGradient id="linear-gradient-6" x1="1399.16" y1="284.09" x2="2013.39" y2="284.09" gradientTransform="translate(-1480.17 701.82) rotate(-23.86)" xlink:href="#linear-gradient"/>
    <linearGradient id="linear-gradient-7" x1="-75.24" y1="356.34" x2="532.31" y2="356.34" xlink:href="#linear-gradient"/>
    <linearGradient id="linear-gradient-8" x1="1402.07" y1="285.38" x2="2016.3" y2="285.38" gradientTransform="translate(-1480.17 701.82) rotate(-23.86)" xlink:href="#linear-gradient"/>
    <linearGradient id="linear-gradient-9" x1="1402.07" y1="339.74" x2="2016.3" y2="339.74" gradientTransform="translate(-1480.17 701.82) rotate(-23.86)" xlink:href="#linear-gradient"/>
    <linearGradient id="linear-gradient-10" x1="1402.07" y1="153.56" x2="2016.3" y2="153.56" gradientTransform="translate(-1480.17 701.82) rotate(-23.86)" xlink:href="#linear-gradient"/>
    <linearGradient id="linear-gradient-11" x1="1402.07" y1="207.93" x2="2016.3" y2="207.93" gradientTransform="translate(-1480.17 701.82) rotate(-23.86)" xlink:href="#linear-gradient"/>
    <linearGradient id="linear-gradient-12" x1="-179.79" y1="50.56" x2="427.73" y2="50.56" xlink:href="#linear-gradient"/>
    <linearGradient id="linear-gradient-13" x1="1402.07" y1="207.93" x2="2016.3" y2="207.93" gradientTransform="translate(-1480.17 701.82) rotate(-23.86)" xlink:href="#linear-gradient"/>
    <linearGradient id="linear-gradient-14" x1="-16.79" y1="379.71" x2="586.72" y2="379.71" xlink:href="#linear-gradient"/>
    <linearGradient id="linear-gradient-15" x1="-55.02" y1="369.61" x2="552.49" y2="369.61" xlink:href="#linear-gradient"/>
    <linearGradient id="linear-gradient-16" x1="1402.07" y1="416.22" x2="2016.3" y2="416.22" gradientTransform="translate(-1480.17 701.82) rotate(-23.86)" xlink:href="#linear-gradient"/>
    <linearGradient id="linear-gradient-17" x1="-40.82" y1="365.99" x2="566.74" y2="365.99" xlink:href="#linear-gradient"/>
  </defs>
  <rect class="cls-13" y="0" width="1235.51" height="411.83"/>
  <g>
    <g>
      <path class="cls-21" d="M165.72,52.34c-3.27,5.63-8.02,9.83-13.54,12.27-5.45,2.41-11.64,3.12-17.91,1.83-6.59,11.1-18.95,16.51-31.6,13.79-12.65-2.72-21.7-12.73-23.14-25.56-12.59-2.83-21.55-12.92-22.88-25.79C55.41,16.77,61.29,5.7,71.77,0h94.35c.71,6.05-.51,12.32-3.75,18.02,8.53,9.69,9.85,23.13,3.35,34.32Z"/>
      <path class="cls-3" d="M62.56,141.7c1.2,12.85-5.63,24.49-17.46,29.73-11.83,5.23-25.04,2.45-33.74-7.08-3.71,1.6-7.57,2.42-11.36,2.48v-92.95c.7.09,1.4.21,2.11.36,3.26-5.51,7.95-9.62,13.4-12.02,5.52-2.45,11.82-3.14,18.19-1.77,12.65,2.72,21.7,12.73,23.14,25.56,12.59,2.83,21.56,12.92,22.88,25.79,1.32,12.86-5.41,24.57-17.16,29.9Z"/>
      <path class="cls-10" d="M289.39,41.35c1.2,12.85-5.63,24.5-17.46,29.73-11.83,5.23-25.04,2.45-33.74-7.08-11.85,5.11-25.04,2.22-33.67-7.42-8.63-9.63-10.07-23.05-3.69-34.27C195.21,15.93,192.72,7.92,193.53,0h109.47c1.89,3.42,3.11,7.29,3.54,11.45,1.33,12.87-5.4,24.57-17.15,29.9Z"/>
      <path class="cls-9" d="M9.23,21.15c.88,9.48-2.6,18.3-9.23,24.37V0h26.03c-1.74,9.23-7.79,17.06-16.8,21.15Z"/>
      <path class="cls-11" d="M45.56,393.78c-3.28,5.63-8.03,9.83-13.55,12.27-5.45,2.41-11.64,3.12-17.91,1.83-.84,1.41-1.77,2.73-2.77,3.95H0v-98.35c1.73,1.22,3.35,2.66,4.84,4.29,11.85-5.11,25.04-2.22,33.67,7.42,8.63,9.63,10.07,23.05,3.69,34.27,8.53,9.69,9.85,23.13,3.36,34.32Z"/>
      <path class="cls-19" d="M262.15,224.84c-8.63-9.63-21.82-12.53-33.67-7.42-8.7-9.53-21.91-12.31-33.74-7.08-11.83,5.23-18.66,16.88-17.46,29.73-11.75,5.33-18.48,17.03-17.16,29.9,1.32,12.87,10.29,22.96,22.88,25.79,1.44,12.82,10.49,22.84,23.14,25.56,12.65,2.72,25.01-2.69,31.6-13.79,6.27,1.29,12.47.58,17.91-1.83,5.53-2.44,10.28-6.64,13.55-12.28,6.49-11.19,5.17-24.62-3.35-34.31,6.38-11.22,4.94-24.64-3.69-34.28Z"/>
      <path class="cls-16" d="M169.22,382.79c1.15,12.31-5.07,23.53-16.01,29.04h-26.93c-3.02-1.58-5.82-3.72-8.26-6.39-11.85,5.11-25.04,2.22-33.67-7.41-8.63-9.64-10.07-23.06-3.69-34.28-8.52-9.69-9.85-23.13-3.35-34.31,6.49-11.19,18.81-16.7,31.45-14.11,3.27-5.51,7.96-9.61,13.4-12.02,5.53-2.45,11.83-3.14,18.2-1.77,12.65,2.72,21.7,12.74,23.14,25.56,12.59,2.83,21.55,12.92,22.88,25.79,1.32,12.87-5.41,24.57-17.16,29.9Z"/>
      <path class="cls-12" d="M492.17,124.49c-8.63-9.63-21.82-12.53-33.67-7.42-8.7-9.53-21.91-12.31-33.74-7.08-11.83,5.23-18.66,16.88-17.46,29.73-11.75,5.33-18.48,17.03-17.16,29.9,1.32,12.87,10.29,22.96,22.88,25.79,1.44,12.82,10.49,22.84,23.14,25.56,12.65,2.72,25.01-2.69,31.6-13.79,6.27,1.29,12.47.58,17.91-1.83,5.53-2.44,10.28-6.64,13.55-12.28,6.49-11.19,5.17-24.62-3.35-34.31,6.38-11.22,4.94-24.64-3.69-34.28Z"/>
      <path class="cls-17" d="M413.2,252.54c1.32,12.87-5.41,24.57-17.16,29.9,1.2,12.85-5.63,24.5-17.46,29.73-11.83,5.23-25.04,2.45-33.74-7.08-11.85,5.11-25.04,2.22-33.67-7.42-8.63-9.63-10.07-23.06-3.69-34.28-8.52-9.69-9.85-23.13-3.35-34.31,6.49-11.19,18.82-16.7,31.46-14.1,3.27-5.51,7.96-9.61,13.4-12.02,5.53-2.44,11.83-3.14,18.2-1.77,12.65,2.72,21.7,12.74,23.14,25.56,12.59,2.83,21.56,12.92,22.88,25.79Z"/>
      <path class="cls-4" d="M212.01,104.29c-8.63-9.63-21.82-12.53-33.67-7.42-8.7-9.53-21.91-12.31-33.74-7.08-11.83,5.23-18.66,16.88-17.46,29.73-11.75,5.33-18.48,17.03-17.16,29.9,1.32,12.87,10.29,22.96,22.88,25.79,1.44,12.82,10.49,22.84,23.14,25.56,12.65,2.72,25.01-2.69,31.6-13.79,6.27,1.29,12.47.58,17.91-1.83s10.28-6.64,13.55-12.28c6.49-11.19,5.17-24.62-3.35-34.31,6.38-11.22,4.94-24.64-3.69-34.28Z"/>
      <path class="cls-18" d="M133.05,232.34c1.32,12.87-5.41,24.57-17.16,29.9,1.2,12.85-5.63,24.5-17.46,29.73-11.83,5.23-25.04,2.45-33.74-7.08-11.85,5.11-25.04,2.22-33.67-7.42-8.63-9.63-10.07-23.06-3.69-34.28-8.52-9.69-9.85-23.13-3.35-34.31,6.49-11.19,18.82-16.7,31.46-14.1,3.27-5.51,7.96-9.61,13.4-12.02,5.53-2.44,11.83-3.14,18.2-1.77,12.65,2.72,21.7,12.74,23.14,25.56,12.59,2.83,21.56,12.92,22.88,25.79Z"/>
      <path class="cls-5" d="M445.88,72.53c-3.27,5.64-8.02,9.84-13.55,12.28-5.44,2.41-11.63,3.12-17.91,1.83-6.58,11.1-18.95,16.51-31.59,13.79-12.65-2.72-21.7-12.74-23.14-25.56-12.59-2.83-21.56-12.92-22.88-25.79-1.32-12.87,5.41-24.57,17.16-29.9C353.31,12.14,355.06,5.46,358.74,0h75.83c1.52,1.16,2.95,2.47,4.27,3.95,8.63,9.63,10.06,23.05,3.69,34.27,8.52,9.69,9.84,23.13,3.35,34.31Z"/>
      <path class="cls-2" d="M359.87,132c1.32,12.87-5.41,24.57-17.16,29.9,1.2,12.85-5.63,24.5-17.46,29.73-11.83,5.23-25.04,2.45-33.74-7.08-11.85,5.11-25.04,2.22-33.67-7.42-8.63-9.63-10.07-23.06-3.69-34.28-8.52-9.69-9.85-23.13-3.35-34.31,6.49-11.19,18.82-16.7,31.46-14.1,3.27-5.51,7.96-9.61,13.4-12.02,5.53-2.44,11.83-3.14,18.2-1.77,12.65,2.72,21.7,12.74,23.14,25.56,12.59,2.83,21.56,12.92,22.88,25.79Z"/>
    </g>
    <g>
      <path class="cls-14" d="M608.81,411.83h-112.13c-.12-.66-.21-1.33-.28-2-1.32-12.87,5.41-24.57,17.16-29.9-1.2-12.85,5.63-24.5,17.46-29.73,11.83-5.24,25.04-2.46,33.74,7.08,11.85-5.12,25.04-2.22,33.67,7.41,8.63,9.63,10.07,23.06,3.69,34.28,3.36,3.83,5.6,8.24,6.69,12.86Z"/>
      <path class="cls-1" d="M326,411.83h-95.85c-7.74-4.66-12.92-12.67-13.9-22.2-1.32-12.87,5.4-24.57,17.16-29.9-1.2-12.85,5.62-24.5,17.45-29.73,11.83-5.24,25.04-2.45,33.74,7.08,11.85-5.12,25.04-2.22,33.67,7.41,8.63,9.64,10.07,23.06,3.69,34.28,8.21,9.33,9.74,22.13,4.04,33.06Z"/>
      <path class="cls-20" d="M545.1,244.14c-8.63-9.63-21.82-12.53-33.67-7.42-8.7-9.53-21.91-12.31-33.74-7.08s-18.66,16.88-17.46,29.73c-11.75,5.33-18.48,17.03-17.16,29.9,1.32,12.87,10.29,22.96,22.88,25.79,1.44,12.82,10.49,22.84,23.14,25.56,12.65,2.72,25.01-2.69,31.6-13.79,6.27,1.29,12.47.58,17.91-1.83,5.53-2.44,10.28-6.64,13.55-12.28,6.49-11.19,5.17-24.62-3.35-34.31,6.38-11.22,4.94-24.64-3.69-34.28Z"/>
      <path class="cls-15" d="M448.98,402.1c.31,3.36.08,6.63-.65,9.73h-88.16c-4.95-8.87-4.99-19.57.25-28.78-8.52-9.69-9.85-23.12-3.35-34.31,6.49-11.19,18.81-16.7,31.46-14.1,3.26-5.51,7.95-9.62,13.4-12.03,5.52-2.44,11.82-3.13,18.19-1.76,12.65,2.72,21.7,12.73,23.14,25.56,12.59,2.83,21.56,12.92,22.88,25.78,1.32,12.87-5.41,24.58-17.16,29.91Z"/>
    </g>
  </g>
  <g>
    <g>
      <path class="cls-8" d="M717.98,147.62c-.1,1.84-.91,3.54-2.29,4.77-10.53,9.39-17.08,22.6-17.97,36.26-.11,1.83-.94,3.51-2.32,4.72-1.29,1.13-2.94,1.74-4.64,1.72-.13,0-.26,0-.39-.02-.29-.02-.57-.05-.83-.1l-.23-.05c-3.29-.73-5.61-3.83-5.39-7.2,1.11-17.23,9.33-33.87,22.53-45.64,1.28-1.15,2.95-1.76,4.68-1.74,1.94.02,3.78.85,5.07,2.27,1.25,1.38,1.88,3.15,1.78,5Z"/>
      <path class="cls-8" d="M743.81,156.98c-.1,1.82-.9,3.49-2.26,4.7-9.65,8.6-15.66,20.71-16.46,33.22-.11,1.81-.93,3.46-2.3,4.66-1.27,1.11-2.89,1.71-4.58,1.69-.13,0-.26,0-.39-.01-.27-.02-.55-.05-.82-.11-3.39-.64-5.77-3.71-5.55-7.14,1.04-16.04,8.68-31.52,20.97-42.47,1.27-1.14,2.91-1.75,4.6-1.73h.02c.1,0,.2,0,.31.01,1.81.1,3.47.9,4.69,2.24l.09.1c1.16,1.33,1.76,3.06,1.66,4.83Z"/>
      <path class="cls-8" d="M825.54,178.4c-.86,2.54-3.26,4.22-5.98,4.19-.63,0-1.25-.11-1.85-.31-1.6-.52-2.89-1.63-3.63-3.12-.74-1.47-.85-3.13-.32-4.69,6.2-18.24-.36-38.08-16.33-49.37-7.61-5.39-16.57-8.3-25.91-8.41-9.78-.12-19.14,2.81-27.08,8.47-1.09.78-2.37,1.18-3.71,1.16s-2.5-.41-3.54-1.15c-7.6-5.38-16.55-8.28-25.88-8.4-9.79-.12-19.17,2.81-27.13,8.48-15.78,11.25-22.31,30.96-16.24,49.07.86,2.57-.06,5.36-2.27,6.93-15.77,11.23-22.29,30.94-16.22,49.07,5.99,17.9,22.96,30.08,42.21,30.31h.67s.07,0,.1,0h.02c2.63.03,4.96,1.73,5.79,4.22,5.98,17.88,22.98,30.06,42.29,30.29.21,0,.41,0,.63,0,16.64-.02,31.85-8.95,39.68-23.29,1.1-2.02,3.23-3.25,5.57-3.22.98.01,1.92.25,2.8.7,1.49.78,2.57,2.09,3.06,3.68.48,1.58.31,3.25-.49,4.7-10,18.32-29.39,29.71-50.6,29.74-.27,0-.54,0-.81,0h0c-11.69-.14-22.89-3.68-32.39-10.23-8.73-6.01-15.56-14.27-19.75-23.89l-.24-.55-.59-.05c-10.79-.88-21.05-4.71-29.7-11.08-9.42-6.94-16.35-16.44-20.05-27.47-3.69-11.04-3.84-22.72-.43-33.78,3.12-10.11,9.08-19.12,17.23-26.06l.46-.4-.14-.59c-2.45-10.3-1.89-21.02,1.64-31,3.84-10.91,10.94-20.28,20.53-27.11,9.57-6.82,20.86-10.55,32.63-10.79.64-.01,1.28-.01,1.91,0,10.15.12,20.12,2.9,28.82,8.02l.5.3.51-.3c9.16-5.43,19.64-8.23,30.3-8.1h.39c11.77.22,23.06,3.91,32.66,10.7,20.46,14.47,28.85,39.91,20.89,63.32Z"/>
    </g>
    <g>
      <path class="cls-8" d="M890.21,190.25c-13.42,0-16.27,11.7-16.27,11.7v-35.92c0-5.66-3.22-8.05-7.21-8.05-3.75,0-7.38,1.44-7.38,8.3v109.81c0,4.49,2.76,7.17,7.38,7.17s7.21-2.68,7.21-7.17v-57.16c0-6.06.92-13.02,8.05-13.02,4.38,0,7.21,3.03,7.21,7.74v62.26c0,6.64,5.05,7.36,7.21,7.36,3.57,0,7.38-2.13,7.38-8.11v-71.31c0-8.13-5.46-13.59-13.59-13.59Z"/>
      <path class="cls-8" d="M952.81,196.62c-3.94-4.23-9.31-6.55-15.13-6.55h-2.85c-6.53,0-11.96,2.25-15.74,6.51-3.38,3.82-5.24,9.08-5.24,14.81v7.92c0,7.32,4.81,8.11,6.88,8.11,2.9,0,7.88-.19,8.62-5.01-.16-.03-.19-.08-.12-.13-1.27-.59-2.26-1.69-2.73-3.12-.7-2.17.03-4.45,1.86-5.8-.69-2.18.06-4.45,1.91-5.8,1.85-1.34,4.24-1.35,6.1-.03.92-.65,1.98-.98,3.03-.98s2.14.34,3.07,1.01c1.85,1.35,2.6,3.62,1.91,5.8,1.84,1.35,2.57,3.63,1.86,5.8-.69,2.13-2.55,3.53-4.77,3.61-1.95,4.69-6.34,7.02-11.39,10.54-7.97,5.58-16.23,11.35-16.23,24.12v12.25c0,8.13,5.46,13.59,13.6,13.59.16,0,.33-.01.5-.02,2.47-.13,4.63-1.24,6.44-2.89,5.56-4.43,9.66-10.56,9.66-10.56v5.17c0,6.86,4.47,8.3,8.22,8.3,3.99,0,6.38-1.98,6.38-5.28v-66.6c0-5.42-2.13-10.8-5.84-14.77ZM944.38,255.38c.69,2.18-.06,4.45-1.91,5.79-.93.68-2,1.01-3.07,1.01s-2.11-.32-3.03-.98c-1.86,1.33-4.25,1.32-6.1-.03-1.85-1.34-2.6-3.61-1.91-5.79-1.83-1.36-2.56-3.63-1.86-5.81.71-2.18,2.63-3.59,4.92-3.61.72-2.17,2.66-3.56,4.95-3.56s4.23,1.39,4.95,3.56c2.28.02,4.21,1.43,4.92,3.61.71,2.18-.02,4.45-1.86,5.81Z"/>
      <path class="cls-8" d="M999.58,190.25c-.24,0-.47,0-.71.03-10.27.56-15.56,13.18-15.56,13.18v-6.04c0-5.04-3.31-7.17-7.3-7.17-3.75,0-7.3,2.06-7.3,7.17v78.67c0,4.49,2.76,7.17,7.38,7.17s7.21-2.68,7.21-7.17v-57.16c0-6.06.91-13.02,8.05-13.02,4.38,0,7.21,3.03,7.21,7.74v7.92c0,6.64,5.04,7.36,7.21,7.36,3.57,0,7.38-2.13,7.38-8.11v-13.21c0-11.2-4.83-17.36-13.59-17.36Z"/>
      <path class="cls-8" d="M1084.12,190.25c-9.41,0-16.44,13.89-16.44,13.89,0,0-.75-13.89-13.59-13.89-10.57,0-16.27,10.75-16.27,10.75v-3.58c0-4.77-2.97-7.17-7.3-7.17-3.75,0-7.3,1.98-7.3,7.17v78.67c0,4.49,2.76,7.17,7.38,7.17s7.21-2.68,7.21-7.17v-57.16c0-6.06.91-13.02,8.05-13.02,4.38,0,7.21,3.03,7.21,7.74v62.26c0,6.64,5.04,7.36,7.21,7.36,3.57,0,7.38-2.13,7.38-8.11v-56.22c0-5.59.85-13.02,8.22-13.02,4.38,0,7.21,3.03,7.21,7.74v62.26c0,6.64,5.04,7.36,7.21,7.36,3.57,0,7.38-2.13,7.38-8.11v-67.54c0-11.2-4.83-17.36-13.59-17.36Z"/>
      <path class="cls-8" d="M1114.39,190.07c-4.62,0-7.38,2.68-7.38,7.17v78.86c0,4.49,2.76,7.17,7.38,7.17s7.21-2.68,7.21-7.17v-78.86c0-4.49-2.69-7.17-7.21-7.17Z"/>
      <path class="cls-8" d="M1127.37,163.84c-.93-2.85-3.45-4.7-6.44-4.73-.95-2.84-3.49-4.67-6.49-4.67s-5.54,1.83-6.49,4.67c-2.99.03-5.52,1.88-6.44,4.73-.93,2.85.03,5.83,2.43,7.61-.9,2.85.08,5.83,2.51,7.59,2.43,1.76,5.56,1.78,7.99.04,1.21.86,2.59,1.29,3.97,1.29s2.8-.44,4.02-1.33c2.43-1.76,3.41-4.74,2.51-7.59,2.4-1.78,3.36-4.76,2.43-7.61Z"/>
      <path class="cls-8" d="M821,283.27c-15.14,0-22.82-8.27-22.82-24.58v-40.15c0-17.3,8.96-28.47,22.82-28.47h5.46c13.86,0,22.82,11.25,22.82,28.67v4.09c0,5.61-4.65,6.45-7.42,6.45-2.29,0-7.62-.63-7.62-6.45v-8.97c0-5.98-4.42-10.31-10.51-10.31s-10.51,4.34-10.51,10.31v45.81c0,6.27,4.13,10.31,10.51,10.31s10.51-4.05,10.51-10.31v-7.41c0-5.82,5.33-6.45,7.62-6.45,2.77,0,7.42.84,7.42,6.45v6.43c0,16.31-7.68,24.58-22.82,24.58h-5.46Z"/>
    </g>
  </g>
  <text class="cls-7" transform="translate(958.02 319.58)"><tspan class="cls-22" x="0" y="0">K</tspan><tspan x="11.72" y="0">eep on str</tspan><tspan class="cls-6" x="97.47" y="0">e</tspan><tspan x="108.41" y="0">aming.</tspan></text>
</svg>