<?xml version="1.0" encoding="UTF-8"?>
<svg id="Layer_1" data-name="Layer 1" xmlns="http://www.w3.org/2000/svg" viewBox="0 0 315.7 324.34">
  <defs>
    <style>
      .cls-1 {
        fill: #7a6cf0;
      }
    </style>
  </defs>
  <path class="cls-1" d="M310.4,238.49c-6.79,20.26-19.53,37.71-36.83,50.47-15.88,11.7-34.74,18.74-54.56,20.35l-1.08.1-.44,1c-2.11,4.84-4.58,9.5-7.39,13.93h-28.72c7.83-8.31,13.94-18.3,17.69-29.51,1.53-4.58,5.81-7.69,10.63-7.76h.05s.1,0,.18,0h1.23c35.38-.44,66.54-22.82,77.55-55.71,11.15-33.3-.83-69.52-29.79-90.14-4.08-2.9-5.76-8.02-4.18-12.74,11.15-33.25-.85-69.48-29.84-90.14-14.62-10.41-31.85-15.79-49.83-15.58-17.15.21-33.59,5.54-47.55,15.43-1.9,1.35-4.15,2.08-6.5,2.11-2.45.03-4.81-.7-6.8-2.13-14.59-10.39-31.79-15.77-49.76-15.55-17.15.21-33.61,5.55-47.6,15.45-6.41,4.53-12.06,9.6-16.86,15.09v-30.85c1.18-.9,2.38-1.78,3.6-2.64C21.23,7.2,41.97.4,63.59.02h.72c19.59-.25,38.84,4.9,55.67,14.88l.93.54.93-.54C137.83,5.48,156.14.39,174.79.16c1.15-.02,2.33,0,3.51,0,21.62.44,42.35,7.3,59.94,19.83,17.62,12.54,30.66,29.76,37.72,49.8,6.47,18.33,7.51,38.02,3.01,56.95l-.26,1.09.85.73c14.97,12.74,25.9,29.29,31.65,47.87,6.26,20.3,5.99,41.77-.8,62.06Z"/>
</svg>