<?xml version="1.0" encoding="UTF-8"?>
<svg id="Layer_1" data-name="Layer 1" xmlns="http://www.w3.org/2000/svg" viewBox="0 0 335.77 294.7">
  <defs>
    <style>
      .cls-1 {
        fill: #7a6cf0;
      }

      .cls-2 {
        fill: #5752b2;
      }

      .cls-3 {
        fill: #3e3b7f;
      }
    </style>
  </defs>
  <path class="cls-3" d="M204.56,165.67c-7.23-22.26-26.93-36.7-50.28-36.91-7.42-22.14-27.24-36.41-50.64-36.41s-43.22,14.27-50.64,36.41c-23.35.22-43.04,14.66-50.28,36.91-7.23,22.26.22,45.52,18.98,59.41-7.01,22.27.64,45.47,19.57,59.22,18.93,13.76,43.36,13.86,62.37.31,9.44,6.72,20.2,10.08,30.97,10.08s21.86-3.46,31.4-10.39c18.93-13.76,26.58-36.95,19.57-59.22,18.76-13.9,26.21-37.16,18.98-59.41Z"/>
  <path class="cls-2" d="M246.62,149.21c2.42-23.64-9.95-45.14-31.55-54.93,2.19-23.61-10.36-45.01-32.1-54.61-21.74-9.61-46.01-4.48-61.99,13.04-21.78-9.38-46-4.05-61.86,13.65-15.85,17.71-18.48,42.37-6.76,62.99-15.65,17.81-18.07,42.5-6.13,63.05,11.94,20.55,34.59,30.67,57.82,25.89,6.01,10.12,14.63,17.66,24.63,22.08,10.16,4.49,21.73,5.76,33.44,3.23,23.23-5.01,39.86-23.42,42.49-46.98,23.13-5.21,39.6-23.76,42.02-47.4Z"/>
  <path class="cls-1" d="M304.72,187.48c17.64-15.93,22.87-40.18,13.39-61.91,17.45-16.05,22.47-40.35,12.78-62.05-9.7-21.7-31.14-34.16-54.75-31.87C266.27,10.09,244.72-2.19,221.08.32c-23.63,2.52-42.12,19.06-47.23,42.22-23.56,2.73-41.9,19.43-46.81,42.69-4.91,23.26,5.12,45.95,25.56,57.96-2.32,11.53-.98,22.91,3.48,32.9s12.27,18.84,22.65,24.81c20.6,11.85,45.28,9.33,63.02-6.4,20.66,11.64,45.32,8.91,62.96-7.02Z"/>
</svg>